<?xml version="1.0" encoding="utf-8"?>
<svg fill="#ffffff" version="1.1" id="Capa_1" xmlns="http://www.w3.org/2000/svg" width="800px" height="800px" viewBox="0 0 168.067 168.066">
  <g>
    <g>
      <path d="M 84.932 96.099 C 84.686 99.016 85.503 -0.428 85.503 -0.428 C 85.503 -0.428 74.346 0.515 75.602 10.657 C 75.602 10.657 75.77 11.27 75.02 11.251 C 74.094 11.229 74.005 13.483 76.01 15.023 C 76.01 15.023 76.474 17.639 77.686 18.626 C 77.686 18.626 78.515 22.653 77.058 24.75 C 77.058 24.75 76.099 26.969 69.214 28 C 69.214 28 62.39 28.066 61.454 37.314 L 61.331 50.868 C 61.331 50.868 60.831 58.891 58.137 63.188 C 58.137 63.188 56.574 65.946 56.388 72.319 C 56.388 72.319 55.933 77.703 55.324 79.383 C 54.959 80.368 53.682 82.036 52.684 83.273 C 50.729 85.725 47.427 90.819 49.182 91.383 C 49.182 91.383 50.555 91.514 52.367 87.924 C 52.367 87.924 52.331 89.303 50.87 93.32 C 50.597 94.074 49.378 97.872 51.34 96.505 C 51.34 96.505 52.249 95.88 53.436 91.957 C 53.436 91.957 52.796 98.551 53.497 98.879 C 54.421 99.327 54.929 98.036 55.346 92.252 C 55.346 92.252 55.774 90.389 55.97 97.511 C 55.981 97.868 56.528 99.699 57.275 98.146 C 57.902 96.838 57.623 93.359 57.623 92.193 C 57.623 92.193 58.435 96.691 59.192 96.691 C 59.192 96.691 60.084 97.742 59.724 92.16 C 59.661 91.246 59.972 89.37 60.016 88.811 L 60.1 86.666 C 60.1 86.666 59.875 84.215 59.875 83.197 C 59.875 82.945 60.755 79.594 63.074 76.071 C 63.074 76.071 67.888 67.529 67.58 61.946 C 67.58 61.946 67.512 56.617 69.451 53.595 C 69.451 53.595 70.83 68.684 69.894 72.923 C 69.894 72.923 65.563 83.327 66.515 91.092 C 67.221 96.864 68.583 109.215 69.959 114.09 C 70.673 116.61 70.248 122.971 70.836 124.553 C 71.086 125.242 70.958 125.865 70.397 127.448 C 68.446 132.915 68.695 136.761 73.585 151.273 C 73.585 151.273 75.088 154.485 74.332 160.263 C 74.332 160.263 71.206 166.682 73.211 166.819 C 73.211 166.819 73.381 167.246 74.044 166.901 C 74.044 166.901 75.123 168.012 76.294 167.416 C 76.294 167.416 77.374 168.27 78.299 167.509 C 78.299 167.509 79.049 168.351 80.132 167.673 C 80.132 167.673 81.549 168.614 82.388 167.585 C 82.388 167.585 83.89 167.936 81.217 161.163 C 81.217 161.163 80.192 154.006 79.63 152.604 C 78.56 149.92 79.319 142.627 79.548 141.051 C 79.924 138.442 79.726 133.97 79.048 130.519 C 78.56 128.044 79.896 123.372 80.383 120.498 C 81.406 114.446 83.383 99.004 83.136 96.099 L 83.954 96.383 C 84.549 96.383 84.932 96.099 84.932 96.099 Z M 82.883 33.873 C 83.07 33.37 82.781 50.541 82.781 49.808 L 82.781 49.74 L 82.445 49.858 L 82.332 49.998 L 81.847 50.468 L 81.808 50.61 L 81.534 51.231 L 80.905 52.564 L 80.867 52.751 L 80.62 53.372 C 80.379 53.996 80.048 54.852 79.537 55.623 C 79.14 56.852 78.479 58.69 77.001 59.424 L 75.542 59.771 L 74.227 59.498 C 73.034 58.964 72.098 57.76 71.643 56.186 C 71.452 55.509 71.356 54.798 71.361 54.073 L 71.381 53.971 C 70.992 52.745 70.91 51.636 71.131 50.677 L 71.156 50.617 C 71.037 49.676 71.145 48.715 71.497 47.826 L 71.467 47.293 C 71.467 46.272 71.728 45.288 72.226 44.406 L 72.27 44.357 L 72.488 43.148 C 72.735 42.426 73.155 41.764 73.734 41.17 L 73.52 40.379 C 73.52 39.919 73.734 39.288 74.606 38.68 L 74.26 37.769 C 74.26 36.882 75.145 36.133 76.714 35.663 L 76.478 34.861 C 76.478 33.879 77.37 33.044 78.866 32.585 C 79.055 31.532 80.439 30.76 82.199 30.76 L 82.664 31.225 L 82.199 31.69 C 80.804 31.69 79.761 32.275 79.761 32.815 C 79.761 33.354 80.804 33.942 82.199 33.942 L 82.883 33.873 Z"/>
    </g>
  </g>
</svg>