<?xml version="1.0" encoding="utf-8"?>
<svg fill="#ffffff" version="1.1" id="Capa_1" xmlns="http://www.w3.org/2000/svg" width="800px" height="800px" viewBox="0 0 168.067 168.066">
  <g>
    <g>
      <path d="M 84.932 71.539 C 84.686 68.622 85.503 168.066 85.503 168.066 C 85.503 168.066 74.346 167.123 75.602 156.981 C 75.602 156.981 75.77 156.368 75.02 156.387 C 74.094 156.409 74.005 154.155 76.01 152.615 C 76.01 152.615 76.474 149.999 77.686 149.012 C 77.686 149.012 78.515 144.985 77.058 142.888 C 77.058 142.888 76.099 140.669 69.214 139.638 C 69.214 139.638 62.39 139.572 61.454 130.324 L 61.331 116.77 C 61.331 116.77 60.831 108.747 58.137 104.45 C 58.137 104.45 56.574 101.692 56.388 95.319 C 56.388 95.319 55.933 89.935 55.324 88.255 C 54.959 87.27 53.682 85.602 52.684 84.365 C 50.729 81.913 47.427 76.819 49.182 76.255 C 49.182 76.255 50.555 76.124 52.367 79.714 C 52.367 79.714 52.331 78.335 50.87 74.318 C 50.597 73.564 49.378 69.766 51.34 71.133 C 51.34 71.133 52.249 71.758 53.436 75.681 C 53.436 75.681 52.796 69.087 53.497 68.759 C 54.421 68.311 54.929 69.602 55.346 75.386 C 55.346 75.386 55.774 77.249 55.97 70.127 C 55.981 69.77 56.528 67.939 57.275 69.492 C 57.902 70.8 57.623 74.279 57.623 75.445 C 57.623 75.445 58.435 70.947 59.192 70.947 C 59.192 70.947 60.084 69.896 59.724 75.478 C 59.661 76.392 59.972 78.268 60.016 78.827 L 60.1 80.972 C 60.1 80.972 59.875 83.423 59.875 84.441 C 59.875 84.693 60.755 88.044 63.074 91.567 C 63.074 91.567 67.888 100.109 67.58 105.692 C 67.58 105.692 67.512 111.021 69.451 114.043 C 69.451 114.043 70.83 98.954 69.894 94.715 C 69.894 94.715 65.563 84.311 66.515 76.546 C 67.221 70.774 68.583 58.423 69.959 53.548 C 70.673 51.028 70.248 44.667 70.836 43.085 C 71.086 42.396 70.958 41.773 70.397 40.19 C 68.446 34.723 68.695 30.877 73.585 16.365 C 73.585 16.365 75.088 13.153 74.332 7.375 C 74.332 7.375 71.206 0.956 73.211 0.819 C 73.211 0.819 73.381 0.392 74.044 0.737 C 74.044 0.737 75.123 -0.374 76.294 0.222 C 76.294 0.222 77.374 -0.632 78.299 0.129 C 78.299 0.129 79.049 -0.713 80.132 -0.035 C 80.132 -0.035 81.549 -0.976 82.388 0.053 C 82.388 0.053 83.89 -0.298 81.217 6.475 C 81.217 6.475 80.192 13.632 79.63 15.034 C 78.56 17.718 79.319 25.011 79.548 26.587 C 79.924 29.196 79.726 33.668 79.048 37.119 C 78.56 39.594 79.896 44.266 80.383 47.14 C 81.406 53.192 83.383 68.634 83.136 71.539 L 83.954 71.255 C 84.549 71.255 84.932 71.539 84.932 71.539 Z M 82.883 133.765 C 83.07 134.268 82.781 117.097 82.781 117.83 L 82.781 117.898 L 82.445 117.78 L 82.332 117.64 L 81.847 117.17 L 81.808 117.028 L 81.534 116.407 L 80.905 115.074 L 80.867 114.887 L 80.62 114.266 C 80.379 113.642 80.048 112.786 79.537 112.015 C 79.14 110.786 78.479 108.948 77.001 108.214 L 75.542 107.867 L 74.227 108.14 C 73.034 108.674 72.098 109.878 71.643 111.452 C 71.452 112.129 71.356 112.84 71.361 113.565 L 71.381 113.667 C 70.992 114.893 70.91 116.002 71.131 116.961 L 71.156 117.021 C 71.037 117.962 71.145 118.923 71.497 119.812 L 71.467 120.345 C 71.467 121.366 71.728 122.35 72.226 123.232 L 72.27 123.281 L 72.488 124.49 C 72.735 125.212 73.155 125.874 73.734 126.468 L 73.52 127.259 C 73.52 127.719 73.734 128.35 74.606 128.958 L 74.26 129.869 C 74.26 130.756 75.145 131.505 76.714 131.975 L 76.478 132.777 C 76.478 133.759 77.37 134.594 78.866 135.053 C 79.055 136.106 80.439 136.878 82.199 136.878 L 82.664 136.413 L 82.199 135.948 C 80.804 135.948 79.761 135.363 79.761 134.823 C 79.761 134.284 80.804 133.696 82.199 133.696 L 82.883 133.765 Z" style="transform-box: fill-box; transform-origin: 50% 50%;" transform="matrix(-1, 0, 0, -1, 0, 0.000003)"/>
    </g>
  </g>
</svg>