<!DOCTYPE svg PUBLIC "-//W3C//DTD SVG 1.1//EN" "http://www.w3.org/Graphics/SVG/1.1/DTD/svg11.dtd">
<!-- Uploaded to: SVG Repo, www.svgrepo.com, Transformed by: SVG Repo Mixer Tools -->
<svg version="1.0" id="Layer_1" xmlns="http://www.w3.org/2000/svg" xmlns:xlink="http://www.w3.org/1999/xlink" width="800px" height="800px" viewBox="-6.4 -6.4 76.80 76.80" enable-background="new 0 0 64 64" xml:space="preserve" fill="#2ca9bc" transform="matrix(-1, 0, 0, 1, 0, 0)rotate(90)">
<g id="SVGRepo_bgCarrier" stroke-width="0">
<path transform="translate(-6.4, -6.4), scale(2.4)" d="M16,31.390147724654526C18.793150711706176,30.886102462426944,20.533623821108627,28.248891643008136,22.67383451662557,26.38468921208126C24.48974209252879,24.80296675623695,26.23433546408731,23.283023175229133,27.591396921287128,21.293613601278214C29.189317152801056,18.951112611276553,32.06237876377556,16.524700244249008,31.25371982994146,13.806846185773725C30.41173933681141,10.977000369861441,26.23858657444432,10.981254905110962,23.963291317127254,9.099768794431892C22.203002119210765,7.64415125819899,21.398299444134555,5.353812986276097,19.498258541127555,4.086025528146557C17.062659825097562,2.4608913005978437,14.392798776416068,0.15135641342152384,11.539923220031923,0.8103734259964419C8.702620071888056,1.4657931972075928,7.543755289320602,4.841174270989065,5.880807593712554,7.231669866599619C4.390488963215395,9.374010321244622,2.6577628225553718,11.445670794469358,2.339570207150615,14.035926709146008C2.024424878761194,16.60137609836276,3.2901696280692585,18.975440531270415,4.138240778274492,21.417083926778417C5.078743028086903,24.124841531973654,5.381109265076674,27.26469715905491,7.575121624622328,29.109366640711656C9.848034563404902,31.020373711566634,13.077676032966808,31.917503281984065,16,31.390147724654526" fill="#7ed0ec" strokewidth="0"/>
</g>
<g id="SVGRepo_tracerCarrier" stroke-linecap="round" stroke-linejoin="round"/>
<g id="SVGRepo_iconCarrier"> <ellipse fill="none" stroke="#2ca9bc" stroke-width="0.00064" stroke-miterlimit="10" cx="32" cy="32" rx="31" ry="20"/> </g>
</svg>